#tb 0: 1/1
#media_type 0: video
#codec_id 0: rawvideo
#dimensions 0: 128x160
#sar 0: 0/1
0,          0,          0,        1,    30720, 0x3a821807
0,          1,          1,        1,    30720, 0x95168e5d
0,          2,          2,        1,    30720, 0xd4d98e45
0,          3,          3,        1,    30720, 0xe340a7ea
0,          4,          4,        1,    30720, 0xb832a22d
0,          5,          5,        1,    30720, 0x1f3eb488
0,          6,          6,        1,    30720, 0x6429ce43
0,          7,          7,        1,    30720, 0x3a3da232
0,          8,          8,        1,    30720, 0x5c02aeff
0,          9,          9,        1,    30720, 0x4c7b1c9a
0,         10,         10,        1,    30720, 0x6f7a8313
0,         11,         11,        1,    30720, 0xaa32fd72
